<?xml version="1.0" encoding="UTF-8" standalone="no"?><svg xmlns="http://www.w3.org/2000/svg" xmlns:xlink="http://www.w3.org/1999/xlink" contentScriptType="application/ecmascript" contentStyleType="text/css" height="730px" preserveAspectRatio="none" style="width:676px;height:730px;" version="1.1" viewBox="0 0 676 730" width="676px" zoomAndPan="magnify"><defs><filter height="300%" id="f1anb43h9ja7sp" width="300%" x="-1" y="-1"><feGaussianBlur result="blurOut" stdDeviation="2.0"/><feColorMatrix in="blurOut" result="blurOut2" type="matrix" values="0 0 0 0 0 0 0 0 0 0 0 0 0 0 0 0 0 0 .4 0"/><feOffset dx="4.0" dy="4.0" in="blurOut2" result="blurOut3"/><feBlend in="SourceGraphic" in2="blurOut3" mode="normal"/></filter></defs><g><rect fill="#FFFFFF" filter="url(#f1anb43h9ja7sp)" height="496.9453" style="stroke: #A80036; stroke-width: 1.0;" width="10" x="237.5" y="119.9609"/><rect fill="#FFFFFF" filter="url(#f1anb43h9ja7sp)" height="436.2422" style="stroke: #A80036; stroke-width: 1.0;" width="10" x="474.5" y="150.3125"/><rect fill="#FFFFFF" filter="url(#f1anb43h9ja7sp)" height="223.2969" style="stroke: #A80036; stroke-width: 1.0;" width="10" x="605.5" y="249.3672"/><rect fill="#FFFFFF" filter="url(#f1anb43h9ja7sp)" height="416.2422" style="stroke: #000000; stroke-width: 2.0;" width="651" x="13" y="208.6641"/><rect fill="#FFFFFF" filter="url(#f1anb43h9ja7sp)" height="277" style="stroke: #000000; stroke-width: 2.0;" width="631" x="23" y="264.3672"/><rect fill="#FFFFFF" height="106.8906" style="stroke: none; stroke-width: 1.0;" width="631" x="23" y="434.4766"/><rect fill="#FFFFFF" height="76.5391" style="stroke: none; stroke-width: 1.0;" width="651" x="13" y="548.3672"/><line style="stroke: #A80036; stroke-width: 1.0; stroke-dasharray: 5.0,5.0;" x1="50" x2="50" y1="87.6094" y2="641.9063"/><line style="stroke: #A80036; stroke-width: 1.0; stroke-dasharray: 5.0,5.0;" x1="242" x2="242" y1="87.6094" y2="641.9063"/><line style="stroke: #A80036; stroke-width: 1.0; stroke-dasharray: 5.0,5.0;" x1="479.5" x2="479.5" y1="87.6094" y2="641.9063"/><line style="stroke: #A80036; stroke-width: 1.0; stroke-dasharray: 5.0,5.0;" x1="610" x2="610" y1="87.6094" y2="641.9063"/><text fill="#000000" font-family="sans-serif" font-size="14" lengthAdjust="spacingAndGlyphs" textLength="29" x="33" y="84.5332">User</text><ellipse cx="50.5" cy="13" fill="#FEFECE" filter="url(#f1anb43h9ja7sp)" rx="8" ry="8" style="stroke: #A80036; stroke-width: 2.0;"/><path d="M50.5,21 L50.5,48 M37.5,29 L63.5,29 M50.5,48 L37.5,63 M50.5,48 L63.5,63 " fill="none" filter="url(#f1anb43h9ja7sp)" style="stroke: #A80036; stroke-width: 2.0;"/><text fill="#000000" font-family="sans-serif" font-size="14" lengthAdjust="spacingAndGlyphs" textLength="29" x="33" y="655.4395">User</text><ellipse cx="50.5" cy="668.5156" fill="#FEFECE" filter="url(#f1anb43h9ja7sp)" rx="8" ry="8" style="stroke: #A80036; stroke-width: 2.0;"/><path d="M50.5,676.5156 L50.5,703.5156 M37.5,684.5156 L63.5,684.5156 M50.5,703.5156 L37.5,718.5156 M50.5,703.5156 L63.5,718.5156 " fill="none" filter="url(#f1anb43h9ja7sp)" style="stroke: #A80036; stroke-width: 2.0;"/><rect fill="#FEFECE" filter="url(#f1anb43h9ja7sp)" height="31.6094" style="stroke: #A80036; stroke-width: 1.5;" width="87" x="197" y="51"/><text fill="#000000" font-family="sans-serif" font-size="14" lengthAdjust="spacingAndGlyphs" textLength="73" x="204" y="72.5332">Grensesnitt</text><rect fill="#FEFECE" filter="url(#f1anb43h9ja7sp)" height="31.6094" style="stroke: #A80036; stroke-width: 1.5;" width="87" x="197" y="640.9063"/><text fill="#000000" font-family="sans-serif" font-size="14" lengthAdjust="spacingAndGlyphs" textLength="73" x="204" y="662.4395">Grensesnitt</text><rect fill="#FEFECE" filter="url(#f1anb43h9ja7sp)" height="31.6094" style="stroke: #A80036; stroke-width: 1.5;" width="60" x="447.5" y="51"/><text fill="#000000" font-family="sans-serif" font-size="14" lengthAdjust="spacingAndGlyphs" textLength="46" x="454.5" y="72.5332">System</text><rect fill="#FEFECE" filter="url(#f1anb43h9ja7sp)" height="31.6094" style="stroke: #A80036; stroke-width: 1.5;" width="60" x="447.5" y="640.9063"/><text fill="#000000" font-family="sans-serif" font-size="14" lengthAdjust="spacingAndGlyphs" textLength="46" x="454.5" y="662.4395">System</text><text fill="#000000" font-family="sans-serif" font-size="14" lengthAdjust="spacingAndGlyphs" textLength="61" x="577" y="84.5332">Database</text><path d="M592.5,34 C592.5,24 610.5,24 610.5,24 C610.5,24 628.5,24 628.5,34 L628.5,60 C628.5,70 610.5,70 610.5,70 C610.5,70 592.5,70 592.5,60 L592.5,34 " fill="#FEFECE" filter="url(#f1anb43h9ja7sp)" style="stroke: #000000; stroke-width: 1.5;"/><path d="M592.5,34 C592.5,44 610.5,44 610.5,44 C610.5,44 628.5,44 628.5,34 " fill="none" style="stroke: #000000; stroke-width: 1.5;"/><text fill="#000000" font-family="sans-serif" font-size="14" lengthAdjust="spacingAndGlyphs" textLength="61" x="577" y="655.4395">Database</text><path d="M592.5,668.5156 C592.5,658.5156 610.5,658.5156 610.5,658.5156 C610.5,658.5156 628.5,658.5156 628.5,668.5156 L628.5,694.5156 C628.5,704.5156 610.5,704.5156 610.5,704.5156 C610.5,704.5156 592.5,704.5156 592.5,694.5156 L592.5,668.5156 " fill="#FEFECE" filter="url(#f1anb43h9ja7sp)" style="stroke: #000000; stroke-width: 1.5;"/><path d="M592.5,668.5156 C592.5,678.5156 610.5,678.5156 610.5,678.5156 C610.5,678.5156 628.5,678.5156 628.5,668.5156 " fill="none" style="stroke: #000000; stroke-width: 1.5;"/><rect fill="#FFFFFF" filter="url(#f1anb43h9ja7sp)" height="496.9453" style="stroke: #A80036; stroke-width: 1.0;" width="10" x="237.5" y="119.9609"/><rect fill="#FFFFFF" filter="url(#f1anb43h9ja7sp)" height="436.2422" style="stroke: #A80036; stroke-width: 1.0;" width="10" x="474.5" y="150.3125"/><rect fill="#FFFFFF" filter="url(#f1anb43h9ja7sp)" height="223.2969" style="stroke: #A80036; stroke-width: 1.0;" width="10" x="605.5" y="249.3672"/><polygon fill="#A80036" points="225.5,115.9609,235.5,119.9609,225.5,123.9609,229.5,119.9609" style="stroke: #A80036; stroke-width: 1.0;"/><line style="stroke: #A80036; stroke-width: 1.0;" x1="50.5" x2="231.5" y1="119.9609" y2="119.9609"/><text fill="#000000" font-family="sans-serif" font-size="13" lengthAdjust="spacingAndGlyphs" textLength="168" x="57.5" y="115.1045">Bli med på valgt arrangement</text><polygon fill="#A80036" points="462.5,146.3125,472.5,150.3125,462.5,154.3125,466.5,150.3125" style="stroke: #A80036; stroke-width: 1.0;"/><line style="stroke: #A80036; stroke-width: 1.0;" x1="247.5" x2="468.5" y1="150.3125" y2="150.3125"/><text fill="#000000" font-family="sans-serif" font-size="13" lengthAdjust="spacingAndGlyphs" textLength="208" x="254.5" y="145.4561">Registrer bruker for gitt arrangement</text><line style="stroke: #A80036; stroke-width: 1.0;" x1="484.5" x2="526.5" y1="180.6641" y2="180.6641"/><line style="stroke: #A80036; stroke-width: 1.0;" x1="526.5" x2="526.5" y1="180.6641" y2="193.6641"/><line style="stroke: #A80036; stroke-width: 1.0;" x1="485.5" x2="526.5" y1="193.6641" y2="193.6641"/><polygon fill="#A80036" points="495.5,189.6641,485.5,193.6641,495.5,197.6641,491.5,193.6641" style="stroke: #A80036; stroke-width: 1.0;"/><text fill="#000000" font-family="sans-serif" font-size="13" lengthAdjust="spacingAndGlyphs" textLength="107" x="491.5" y="175.8076">Valider forespørsel</text><path d="M13,208.6641 L74,208.6641 L74,216.6641 L64,226.6641 L13,226.6641 L13,208.6641 " fill="#EEEEEE" style="stroke: #000000; stroke-width: 1.0;"/><rect fill="none" height="416.2422" style="stroke: #000000; stroke-width: 2.0;" width="651" x="13" y="208.6641"/><text fill="#000000" font-family="sans-serif" font-size="13" font-weight="bold" lengthAdjust="spacingAndGlyphs" textLength="16" x="28" y="223.1592">alt</text><text fill="#000000" font-family="sans-serif" font-size="11" font-weight="bold" lengthAdjust="spacingAndGlyphs" textLength="57" x="89" y="222.083">[Suksess]</text><polygon fill="#A80036" points="593.5,245.3672,603.5,249.3672,593.5,253.3672,597.5,249.3672" style="stroke: #A80036; stroke-width: 1.0;"/><line style="stroke: #A80036; stroke-width: 1.0;" x1="484.5" x2="599.5" y1="249.3672" y2="249.3672"/><text fill="#000000" font-family="sans-serif" font-size="13" lengthAdjust="spacingAndGlyphs" textLength="100" x="491.5" y="244.5107">Lagre registrering</text><path d="M23,264.3672 L84,264.3672 L84,272.3672 L74,282.3672 L23,282.3672 L23,264.3672 " fill="#EEEEEE" style="stroke: #000000; stroke-width: 1.0;"/><rect fill="none" height="277" style="stroke: #000000; stroke-width: 2.0;" width="631" x="23" y="264.3672"/><text fill="#000000" font-family="sans-serif" font-size="13" font-weight="bold" lengthAdjust="spacingAndGlyphs" textLength="16" x="38" y="278.8623">alt</text><text fill="#000000" font-family="sans-serif" font-size="11" font-weight="bold" lengthAdjust="spacingAndGlyphs" textLength="57" x="99" y="277.7861">[Suksess]</text><polygon fill="#A80036" points="495.5,301.0703,485.5,305.0703,495.5,309.0703,491.5,305.0703" style="stroke: #A80036; stroke-width: 1.0;"/><line style="stroke: #A80036; stroke-width: 1.0;" x1="489.5" x2="604.5" y1="305.0703" y2="305.0703"/><text fill="#000000" font-family="sans-serif" font-size="13" lengthAdjust="spacingAndGlyphs" textLength="51" x="501.5" y="300.2139">Suksess</text><polygon fill="#A80036" points="61.5,331.4219,51.5,335.4219,61.5,339.4219,57.5,335.4219" style="stroke: #A80036; stroke-width: 1.0;"/><line style="stroke: #A80036; stroke-width: 1.0; stroke-dasharray: 2.0,2.0;" x1="55.5" x2="473.5" y1="335.4219" y2="335.4219"/><text fill="#000000" font-family="sans-serif" font-size="13" lengthAdjust="spacingAndGlyphs" textLength="129" x="67.5" y="330.5654">send push notifikasjon</text><polygon fill="#A80036" points="61.5,361.7734,51.5,365.7734,61.5,369.7734,57.5,365.7734" style="stroke: #A80036; stroke-width: 1.0;"/><line style="stroke: #A80036; stroke-width: 1.0; stroke-dasharray: 2.0,2.0;" x1="55.5" x2="473.5" y1="365.7734" y2="365.7734"/><text fill="#000000" font-family="sans-serif" font-size="13" lengthAdjust="spacingAndGlyphs" textLength="132" x="67.5" y="360.917">Send verifikasjons mail</text><polygon fill="#A80036" points="258.5,392.125,248.5,396.125,258.5,400.125,254.5,396.125" style="stroke: #A80036; stroke-width: 1.0;"/><line style="stroke: #A80036; stroke-width: 1.0;" x1="252.5" x2="473.5" y1="396.125" y2="396.125"/><text fill="#000000" font-family="sans-serif" font-size="13" lengthAdjust="spacingAndGlyphs" textLength="132" x="264.5" y="391.2686">Send godkjent melding</text><polygon fill="#A80036" points="258.5,422.4766,248.5,426.4766,258.5,430.4766,254.5,426.4766" style="stroke: #A80036; stroke-width: 1.0;"/><line style="stroke: #A80036; stroke-width: 1.0;" x1="252.5" x2="473.5" y1="426.4766" y2="426.4766"/><text fill="#000000" font-family="sans-serif" font-size="13" lengthAdjust="spacingAndGlyphs" textLength="121" x="264.5" y="421.6201">Vis godkjent melding</text><line style="stroke: #000000; stroke-width: 1.0; stroke-dasharray: 2.0,2.0;" x1="23" x2="654" y1="435.4766" y2="435.4766"/><text fill="#000000" font-family="sans-serif" font-size="11" font-weight="bold" lengthAdjust="spacingAndGlyphs" textLength="36" x="28" y="446.8955">[Error]</text><polygon fill="#A80036" points="495.5,468.6641,485.5,472.6641,495.5,476.6641,491.5,472.6641" style="stroke: #A80036; stroke-width: 1.0;"/><line style="stroke: #A80036; stroke-width: 1.0;" x1="489.5" x2="609.5" y1="472.6641" y2="472.6641"/><text fill="#000000" font-family="sans-serif" font-size="13" lengthAdjust="spacingAndGlyphs" textLength="46" x="501.5" y="467.8076">ERROR</text><polygon fill="#A80036" points="258.5,499.0156,248.5,503.0156,258.5,507.0156,254.5,503.0156" style="stroke: #A80036; stroke-width: 1.0;"/><line style="stroke: #A80036; stroke-width: 1.0;" x1="252.5" x2="473.5" y1="503.0156" y2="503.0156"/><text fill="#000000" font-family="sans-serif" font-size="13" lengthAdjust="spacingAndGlyphs" textLength="80" x="264.5" y="498.1592">Send ERROR</text><polygon fill="#A80036" points="61.5,529.3672,51.5,533.3672,61.5,537.3672,57.5,533.3672" style="stroke: #A80036; stroke-width: 1.0;"/><line style="stroke: #A80036; stroke-width: 1.0;" x1="55.5" x2="236.5" y1="533.3672" y2="533.3672"/><text fill="#000000" font-family="sans-serif" font-size="13" lengthAdjust="spacingAndGlyphs" textLength="69" x="67.5" y="528.5107">Vis ERROR</text><line style="stroke: #000000; stroke-width: 1.0; stroke-dasharray: 2.0,2.0;" x1="13" x2="664" y1="549.3672" y2="549.3672"/><text fill="#000000" font-family="sans-serif" font-size="11" font-weight="bold" lengthAdjust="spacingAndGlyphs" textLength="43" x="18" y="560.7861">[ERROR]</text><polygon fill="#A80036" points="258.5,582.5547,248.5,586.5547,258.5,590.5547,254.5,586.5547" style="stroke: #A80036; stroke-width: 1.0;"/><line style="stroke: #A80036; stroke-width: 1.0;" x1="252.5" x2="478.5" y1="586.5547" y2="586.5547"/><text fill="#000000" font-family="sans-serif" font-size="13" lengthAdjust="spacingAndGlyphs" textLength="80" x="264.5" y="581.6982">Send ERROR</text><polygon fill="#A80036" points="61.5,612.9063,51.5,616.9063,61.5,620.9063,57.5,616.9063" style="stroke: #A80036; stroke-width: 1.0;"/><line style="stroke: #A80036; stroke-width: 1.0;" x1="55.5" x2="241.5" y1="616.9063" y2="616.9063"/><text fill="#000000" font-family="sans-serif" font-size="13" lengthAdjust="spacingAndGlyphs" textLength="69" x="67.5" y="612.0498">Vis ERROR</text><!--MD5=[d3e50b1024cf6de8c387f3a0f60a0b9d]
@startuml
actor User
participant Grensesnitt
participant System
database Database

User -> Grensesnitt: Bli med på valgt arrangement
activate Grensesnitt
Grensesnitt -> System: Registrer bruker for gitt arrangement
activate System
System -> System: Valider forespørsel

alt Suksess
    System -> Database: Lagre registrering
    activate Database
    alt Suksess
    Database -> System: Suksess
    System - -> User: send push notifikasjon
    System - -> User: Send verifikasjons mail
    System -> Grensesnitt: Send godkjent melding
    System -> Grensesnitt: Vis godkjent melding

    else Error
    Database -> System: ERROR
    deactivate Database
    System -> Grensesnitt: Send ERROR
    Grensesnitt -> User: Vis ERROR
    end
else ERROR
    System -> Grensesnitt: Send ERROR
    deactivate System
    Grensesnitt -> User: Vis ERROR
    deactivate Grensesnitt
end
@enduml

PlantUML version 1.2019.11(Sun Sep 22 12:02:15 CEST 2019)
(GPL source distribution)
Java Runtime: OpenJDK Runtime Environment
JVM: OpenJDK 64-Bit Server VM
Java Version: 11.0.4+10-b304.77
Operating System: Windows 10
Default Encoding: Cp1252
Language: no
Country: NO
--></g></svg>