<?xml version="1.0" encoding="UTF-8" standalone="no"?><svg xmlns="http://www.w3.org/2000/svg" xmlns:xlink="http://www.w3.org/1999/xlink" contentScriptType="application/ecmascript" contentStyleType="text/css" height="518px" preserveAspectRatio="none" style="width:368px;height:518px;" version="1.1" viewBox="0 0 368 518" width="368px" zoomAndPan="magnify"><defs><filter height="300%" id="f17yf0pen6sqrl" width="300%" x="-1" y="-1"><feGaussianBlur result="blurOut" stdDeviation="2.0"/><feColorMatrix in="blurOut" result="blurOut2" type="matrix" values="0 0 0 0 0 0 0 0 0 0 0 0 0 0 0 0 0 0 .4 0"/><feOffset dx="4.0" dy="4.0" in="blurOut2" result="blurOut3"/><feBlend in="SourceGraphic" in2="blurOut3" mode="normal"/></filter></defs><g><rect fill="#FFFFFF" filter="url(#f17yf0pen6sqrl)" height="234.1328" style="stroke: #000000; stroke-width: 2.0;" width="281.5" x="13" y="178.3125"/><rect fill="#FFFFFF" filter="url(#f17yf0pen6sqrl)" height="125.2422" style="stroke: #000000; stroke-width: 2.0;" width="261.5" x="23" y="234.0156"/><rect fill="#FFFFFF" height="76.5391" style="stroke: none; stroke-width: 1.0;" width="261.5" x="23" y="282.7188"/><rect fill="#FFFFFF" height="46.1875" style="stroke: none; stroke-width: 1.0;" width="281.5" x="13" y="366.2578"/><line style="stroke: #A80036; stroke-width: 1.0; stroke-dasharray: 5.0,5.0;" x1="50" x2="50" y1="87.6094" y2="429.4453"/><line style="stroke: #A80036; stroke-width: 1.0; stroke-dasharray: 5.0,5.0;" x1="111" x2="111" y1="87.6094" y2="429.4453"/><line style="stroke: #A80036; stroke-width: 1.0; stroke-dasharray: 5.0,5.0;" x1="242.5" x2="242.5" y1="87.6094" y2="429.4453"/><text fill="#000000" font-family="sans-serif" font-size="14" lengthAdjust="spacingAndGlyphs" textLength="29" x="33" y="84.5332">User</text><ellipse cx="50.5" cy="13" fill="#FEFECE" filter="url(#f17yf0pen6sqrl)" rx="8" ry="8" style="stroke: #A80036; stroke-width: 2.0;"/><path d="M50.5,21 L50.5,48 M37.5,29 L63.5,29 M50.5,48 L37.5,63 M50.5,48 L63.5,63 " fill="none" filter="url(#f17yf0pen6sqrl)" style="stroke: #A80036; stroke-width: 2.0;"/><text fill="#000000" font-family="sans-serif" font-size="14" lengthAdjust="spacingAndGlyphs" textLength="29" x="33" y="442.9785">User</text><ellipse cx="50.5" cy="456.0547" fill="#FEFECE" filter="url(#f17yf0pen6sqrl)" rx="8" ry="8" style="stroke: #A80036; stroke-width: 2.0;"/><path d="M50.5,464.0547 L50.5,491.0547 M37.5,472.0547 L63.5,472.0547 M50.5,491.0547 L37.5,506.0547 M50.5,491.0547 L63.5,506.0547 " fill="none" filter="url(#f17yf0pen6sqrl)" style="stroke: #A80036; stroke-width: 2.0;"/><text fill="#000000" font-family="sans-serif" font-size="14" lengthAdjust="spacingAndGlyphs" textLength="61" x="78" y="84.5332">Database</text><path d="M93.5,34 C93.5,24 111.5,24 111.5,24 C111.5,24 129.5,24 129.5,34 L129.5,60 C129.5,70 111.5,70 111.5,70 C111.5,70 93.5,70 93.5,60 L93.5,34 " fill="#FEFECE" filter="url(#f17yf0pen6sqrl)" style="stroke: #000000; stroke-width: 1.5;"/><path d="M93.5,34 C93.5,44 111.5,44 111.5,44 C111.5,44 129.5,44 129.5,34 " fill="none" style="stroke: #000000; stroke-width: 1.5;"/><text fill="#000000" font-family="sans-serif" font-size="14" lengthAdjust="spacingAndGlyphs" textLength="61" x="78" y="442.9785">Database</text><path d="M93.5,456.0547 C93.5,446.0547 111.5,446.0547 111.5,446.0547 C111.5,446.0547 129.5,446.0547 129.5,456.0547 L129.5,482.0547 C129.5,492.0547 111.5,492.0547 111.5,492.0547 C111.5,492.0547 93.5,492.0547 93.5,482.0547 L93.5,456.0547 " fill="#FEFECE" filter="url(#f17yf0pen6sqrl)" style="stroke: #000000; stroke-width: 1.5;"/><path d="M93.5,456.0547 C93.5,466.0547 111.5,466.0547 111.5,466.0547 C111.5,466.0547 129.5,466.0547 129.5,456.0547 " fill="none" style="stroke: #000000; stroke-width: 1.5;"/><rect fill="#FEFECE" filter="url(#f17yf0pen6sqrl)" height="31.6094" style="stroke: #A80036; stroke-width: 1.5;" width="60" x="210.5" y="51"/><text fill="#000000" font-family="sans-serif" font-size="14" lengthAdjust="spacingAndGlyphs" textLength="46" x="217.5" y="72.5332">System</text><rect fill="#FEFECE" filter="url(#f17yf0pen6sqrl)" height="31.6094" style="stroke: #A80036; stroke-width: 1.5;" width="60" x="210.5" y="428.4453"/><text fill="#000000" font-family="sans-serif" font-size="14" lengthAdjust="spacingAndGlyphs" textLength="46" x="217.5" y="449.9785">System</text><polygon fill="#A80036" points="230.5,115.9609,240.5,119.9609,230.5,123.9609,234.5,119.9609" style="stroke: #A80036; stroke-width: 1.0;"/><line style="stroke: #A80036; stroke-width: 1.0;" x1="50.5" x2="236.5" y1="119.9609" y2="119.9609"/><text fill="#000000" font-family="sans-serif" font-size="13" lengthAdjust="spacingAndGlyphs" textLength="168" x="57.5" y="115.1045">Registrer for gitt arrangement</text><line style="stroke: #A80036; stroke-width: 1.0;" x1="242.5" x2="284.5" y1="150.3125" y2="150.3125"/><line style="stroke: #A80036; stroke-width: 1.0;" x1="284.5" x2="284.5" y1="150.3125" y2="163.3125"/><line style="stroke: #A80036; stroke-width: 1.0;" x1="243.5" x2="284.5" y1="163.3125" y2="163.3125"/><polygon fill="#A80036" points="253.5,159.3125,243.5,163.3125,253.5,167.3125,249.5,163.3125" style="stroke: #A80036; stroke-width: 1.0;"/><text fill="#000000" font-family="sans-serif" font-size="13" lengthAdjust="spacingAndGlyphs" textLength="107" x="249.5" y="145.4561">Valider forespørsel</text><path d="M13,178.3125 L74,178.3125 L74,186.3125 L64,196.3125 L13,196.3125 L13,178.3125 " fill="#EEEEEE" style="stroke: #000000; stroke-width: 1.0;"/><rect fill="none" height="234.1328" style="stroke: #000000; stroke-width: 2.0;" width="281.5" x="13" y="178.3125"/><text fill="#000000" font-family="sans-serif" font-size="13" font-weight="bold" lengthAdjust="spacingAndGlyphs" textLength="16" x="28" y="192.8076">alt</text><text fill="#000000" font-family="sans-serif" font-size="11" font-weight="bold" lengthAdjust="spacingAndGlyphs" textLength="57" x="89" y="191.7314">[Suksess]</text><polygon fill="#A80036" points="122.5,215.0156,112.5,219.0156,122.5,223.0156,118.5,219.0156" style="stroke: #A80036; stroke-width: 1.0;"/><line style="stroke: #A80036; stroke-width: 1.0;" x1="116.5" x2="241.5" y1="219.0156" y2="219.0156"/><text fill="#000000" font-family="sans-serif" font-size="13" lengthAdjust="spacingAndGlyphs" textLength="100" x="128.5" y="214.1592">Lagre registrering</text><path d="M23,234.0156 L84,234.0156 L84,242.0156 L74,252.0156 L23,252.0156 L23,234.0156 " fill="#EEEEEE" style="stroke: #000000; stroke-width: 1.0;"/><rect fill="none" height="125.2422" style="stroke: #000000; stroke-width: 2.0;" width="261.5" x="23" y="234.0156"/><text fill="#000000" font-family="sans-serif" font-size="13" font-weight="bold" lengthAdjust="spacingAndGlyphs" textLength="16" x="38" y="248.5107">alt</text><text fill="#000000" font-family="sans-serif" font-size="11" font-weight="bold" lengthAdjust="spacingAndGlyphs" textLength="57" x="99" y="247.4346">[Suksess]</text><polygon fill="#A80036" points="230.5,270.7188,240.5,274.7188,230.5,278.7188,234.5,274.7188" style="stroke: #A80036; stroke-width: 1.0;"/><line style="stroke: #A80036; stroke-width: 1.0;" x1="111.5" x2="236.5" y1="274.7188" y2="274.7188"/><text fill="#000000" font-family="sans-serif" font-size="13" lengthAdjust="spacingAndGlyphs" textLength="51" x="118.5" y="269.8623">Suksess</text><line style="stroke: #000000; stroke-width: 1.0; stroke-dasharray: 2.0,2.0;" x1="23" x2="284.5" y1="283.7188" y2="283.7188"/><text fill="#000000" font-family="sans-serif" font-size="11" font-weight="bold" lengthAdjust="spacingAndGlyphs" textLength="36" x="28" y="295.1377">[Error]</text><polygon fill="#A80036" points="230.5,316.9063,240.5,320.9063,230.5,324.9063,234.5,320.9063" style="stroke: #A80036; stroke-width: 1.0;"/><line style="stroke: #A80036; stroke-width: 1.0;" x1="111.5" x2="236.5" y1="320.9063" y2="320.9063"/><text fill="#000000" font-family="sans-serif" font-size="13" lengthAdjust="spacingAndGlyphs" textLength="46" x="118.5" y="316.0498">ERROR</text><polygon fill="#A80036" points="61.5,347.2578,51.5,351.2578,61.5,355.2578,57.5,351.2578" style="stroke: #A80036; stroke-width: 1.0;"/><line style="stroke: #A80036; stroke-width: 1.0;" x1="55.5" x2="241.5" y1="351.2578" y2="351.2578"/><text fill="#000000" font-family="sans-serif" font-size="13" lengthAdjust="spacingAndGlyphs" textLength="69" x="67.5" y="346.4014">Vis ERROR</text><line style="stroke: #000000; stroke-width: 1.0; stroke-dasharray: 2.0,2.0;" x1="13" x2="294.5" y1="367.2578" y2="367.2578"/><text fill="#000000" font-family="sans-serif" font-size="11" font-weight="bold" lengthAdjust="spacingAndGlyphs" textLength="43" x="18" y="378.6768">[ERROR]</text><polygon fill="#A80036" points="61.5,400.4453,51.5,404.4453,61.5,408.4453,57.5,404.4453" style="stroke: #A80036; stroke-width: 1.0;"/><line style="stroke: #A80036; stroke-width: 1.0;" x1="55.5" x2="241.5" y1="404.4453" y2="404.4453"/><text fill="#000000" font-family="sans-serif" font-size="13" lengthAdjust="spacingAndGlyphs" textLength="69" x="67.5" y="399.5889">Vis ERROR</text><!--MD5=[a85575a5d25bdf2b371e0a5e517d656d]
@startuml
actor User
database Database

User -> System: Registrer for gitt arrangement
System -> System: Valider forespørsel

alt Suksess
    System -> Database: Lagre registrering
    alt Suksess
    Database -> System: Suksess
    else Error
    Database -> System: ERROR
    System -> User: Vis ERROR
    end
else ERROR
    System -> User: Vis ERROR
end
@enduml

PlantUML version 1.2019.11(Sun Sep 22 12:02:15 CEST 2019)
(GPL source distribution)
Java Runtime: OpenJDK Runtime Environment
JVM: OpenJDK 64-Bit Server VM
Java Version: 11.0.4+10-b304.77
Operating System: Windows 10
Default Encoding: Cp1252
Language: no
Country: NO
--></g></svg>