<?xml version="1.0" encoding="UTF-8" standalone="no"?><svg xmlns="http://www.w3.org/2000/svg" xmlns:xlink="http://www.w3.org/1999/xlink" contentScriptType="application/ecmascript" contentStyleType="text/css" height="798.75px" preserveAspectRatio="none" style="width:843px;height:798px;" version="1.1" viewBox="0 0 843 798" width="843.75px" zoomAndPan="magnify"><defs><filter height="300%" id="f15bl54tgmevyp" width="300%" x="-1" y="-1"><feGaussianBlur result="blurOut" stdDeviation="2.5"/><feColorMatrix in="blurOut" result="blurOut2" type="matrix" values="0 0 0 0 0 0 0 0 0 0 0 0 0 0 0 0 0 0 .4 0"/><feOffset dx="5.0" dy="5.0" in="blurOut2" result="blurOut3"/><feBlend in="SourceGraphic" in2="blurOut3" mode="normal"/></filter></defs><g><rect fill="#FFFFFF" filter="url(#f15bl54tgmevyp)" height="526.1133" style="stroke: #A80036; stroke-width: 1.25;" width="12.5" x="73.75" y="149.9512"/><rect fill="#FFFFFF" filter="url(#f15bl54tgmevyp)" height="507.3633" style="stroke: #A80036; stroke-width: 1.25;" width="12.5" x="306.25" y="149.9512"/><rect fill="#FFFFFF" filter="url(#f15bl54tgmevyp)" height="431.4844" style="stroke: #A80036; stroke-width: 1.25;" width="12.5" x="552.5" y="187.8906"/><rect fill="#FFFFFF" filter="url(#f15bl54tgmevyp)" height="241.1816" style="stroke: #A80036; stroke-width: 1.25;" width="12.5" x="756.25" y="311.709"/><rect fill="#FFFFFF" filter="url(#f15bl54tgmevyp)" height="406.4844" style="stroke: #000000; stroke-width: 2.5;" width="813.125" x="16.25" y="260.8301"/><rect fill="#FFFFFF" filter="url(#f15bl54tgmevyp)" height="232.4316" style="stroke: #000000; stroke-width: 2.5;" width="788.125" x="28.75" y="330.459"/><rect fill="#FFFFFF" height="57.7344" style="stroke: none; stroke-width: 1.25;" width="788.125" x="28.75" y="505.1563"/><rect fill="#FFFFFF" height="95.6738" style="stroke: none; stroke-width: 1.25;" width="813.125" x="16.25" y="571.6406"/><line style="stroke: #A80036; stroke-width: 1.25; stroke-dasharray: 5.0,5.0;" x1="80" x2="80" y1="109.5117" y2="688.5645"/><line style="stroke: #A80036; stroke-width: 1.25; stroke-dasharray: 5.0,5.0;" x1="311.875" x2="311.875" y1="109.5117" y2="688.5645"/><line style="stroke: #A80036; stroke-width: 1.25; stroke-dasharray: 5.0,5.0;" x1="558.75" x2="558.75" y1="109.5117" y2="688.5645"/><line style="stroke: #A80036; stroke-width: 1.25; stroke-dasharray: 5.0,5.0;" x1="761.875" x2="761.875" y1="109.5117" y2="688.5645"/><text fill="#000000" font-family="sans-serif" font-size="17.5" lengthAdjust="spacingAndGlyphs" textLength="70" x="41.25" y="105.6665">Arrangør</text><ellipse cx="80" cy="16.25" fill="#FEFECE" filter="url(#f15bl54tgmevyp)" rx="10" ry="10" style="stroke: #A80036; stroke-width: 2.5;"/><path d="M80,26.25 L80,60 M63.75,36.25 L96.25,36.25 M80,60 L63.75,78.75 M80,60 L96.25,78.75 " fill="none" filter="url(#f15bl54tgmevyp)" style="stroke: #A80036; stroke-width: 2.5;"/><text fill="#000000" font-family="sans-serif" font-size="17.5" lengthAdjust="spacingAndGlyphs" textLength="70" x="41.25" y="705.481">Arrangør</text><ellipse cx="80" cy="721.8262" fill="#FEFECE" filter="url(#f15bl54tgmevyp)" rx="10" ry="10" style="stroke: #A80036; stroke-width: 2.5;"/><path d="M80,731.8262 L80,765.5762 M63.75,741.8262 L96.25,741.8262 M80,765.5762 L63.75,784.3262 M80,765.5762 L96.25,784.3262 " fill="none" filter="url(#f15bl54tgmevyp)" style="stroke: #A80036; stroke-width: 2.5;"/><rect fill="#FEFECE" filter="url(#f15bl54tgmevyp)" height="39.5117" style="stroke: #A80036; stroke-width: 1.875;" width="108.75" x="255.625" y="63.75"/><text fill="#000000" font-family="sans-serif" font-size="17.5" lengthAdjust="spacingAndGlyphs" textLength="91.25" x="264.375" y="90.6665">Grensesnitt</text><rect fill="#FEFECE" filter="url(#f15bl54tgmevyp)" height="39.5117" style="stroke: #A80036; stroke-width: 1.875;" width="108.75" x="255.625" y="687.3145"/><text fill="#000000" font-family="sans-serif" font-size="17.5" lengthAdjust="spacingAndGlyphs" textLength="91.25" x="264.375" y="714.231">Grensesnitt</text><rect fill="#FEFECE" filter="url(#f15bl54tgmevyp)" height="39.5117" style="stroke: #A80036; stroke-width: 1.875;" width="75" x="518.75" y="63.75"/><text fill="#000000" font-family="sans-serif" font-size="17.5" lengthAdjust="spacingAndGlyphs" textLength="57.5" x="527.5" y="90.6665">System</text><rect fill="#FEFECE" filter="url(#f15bl54tgmevyp)" height="39.5117" style="stroke: #A80036; stroke-width: 1.875;" width="75" x="518.75" y="687.3145"/><text fill="#000000" font-family="sans-serif" font-size="17.5" lengthAdjust="spacingAndGlyphs" textLength="57.5" x="527.5" y="714.231">System</text><text fill="#000000" font-family="sans-serif" font-size="17.5" lengthAdjust="spacingAndGlyphs" textLength="76.25" x="720.625" y="105.6665">Database</text><path d="M740,42.5 C740,30 762.5,30 762.5,30 C762.5,30 785,30 785,42.5 L785,75 C785,87.5 762.5,87.5 762.5,87.5 C762.5,87.5 740,87.5 740,75 L740,42.5 " fill="#FEFECE" filter="url(#f15bl54tgmevyp)" style="stroke: #000000; stroke-width: 1.875;"/><path d="M740,42.5 C740,55 762.5,55 762.5,55 C762.5,55 785,55 785,42.5 " fill="none" style="stroke: #000000; stroke-width: 1.875;"/><text fill="#000000" font-family="sans-serif" font-size="17.5" lengthAdjust="spacingAndGlyphs" textLength="76.25" x="720.625" y="705.481">Database</text><path d="M740,721.8262 C740,709.3262 762.5,709.3262 762.5,709.3262 C762.5,709.3262 785,709.3262 785,721.8262 L785,754.3262 C785,766.8262 762.5,766.8262 762.5,766.8262 C762.5,766.8262 740,766.8262 740,754.3262 L740,721.8262 " fill="#FEFECE" filter="url(#f15bl54tgmevyp)" style="stroke: #000000; stroke-width: 1.875;"/><path d="M740,721.8262 C740,734.3262 762.5,734.3262 762.5,734.3262 C762.5,734.3262 785,734.3262 785,721.8262 " fill="none" style="stroke: #000000; stroke-width: 1.875;"/><rect fill="#FFFFFF" filter="url(#f15bl54tgmevyp)" height="526.1133" style="stroke: #A80036; stroke-width: 1.25;" width="12.5" x="73.75" y="149.9512"/><rect fill="#FFFFFF" filter="url(#f15bl54tgmevyp)" height="507.3633" style="stroke: #A80036; stroke-width: 1.25;" width="12.5" x="306.25" y="149.9512"/><rect fill="#FFFFFF" filter="url(#f15bl54tgmevyp)" height="431.4844" style="stroke: #A80036; stroke-width: 1.25;" width="12.5" x="552.5" y="187.8906"/><rect fill="#FFFFFF" filter="url(#f15bl54tgmevyp)" height="241.1816" style="stroke: #A80036; stroke-width: 1.25;" width="12.5" x="756.25" y="311.709"/><polygon fill="#A80036" points="291.25,144.9512,303.75,149.9512,291.25,154.9512,296.25,149.9512" style="stroke: #A80036; stroke-width: 1.25;"/><line style="stroke: #A80036; stroke-width: 1.25;" x1="86.25" x2="298.75" y1="149.9512" y2="149.9512"/><text fill="#000000" font-family="sans-serif" font-size="16.25" lengthAdjust="spacingAndGlyphs" textLength="195" x="95" y="143.8806">Fyll ut informasjon og send</text><polygon fill="#A80036" points="537.5,182.8906,550,187.8906,537.5,192.8906,542.5,187.8906" style="stroke: #A80036; stroke-width: 1.25;"/><line style="stroke: #A80036; stroke-width: 1.25;" x1="318.75" x2="545" y1="187.8906" y2="187.8906"/><text fill="#000000" font-family="sans-serif" font-size="16.25" lengthAdjust="spacingAndGlyphs" textLength="151.25" x="327.5" y="181.8201">Send inn informasjon</text><line style="stroke: #A80036; stroke-width: 1.25;" x1="565" x2="617.5" y1="225.8301" y2="225.8301"/><line style="stroke: #A80036; stroke-width: 1.25;" x1="617.5" x2="617.5" y1="225.8301" y2="242.0801"/><line style="stroke: #A80036; stroke-width: 1.25;" x1="566.25" x2="617.5" y1="242.0801" y2="242.0801"/><polygon fill="#A80036" points="578.75,237.0801,566.25,242.0801,578.75,247.0801,573.75,242.0801" style="stroke: #A80036; stroke-width: 1.25;"/><text fill="#000000" font-family="sans-serif" font-size="16.25" lengthAdjust="spacingAndGlyphs" textLength="137.5" x="573.75" y="219.7595">Valider informasjon</text><path d="M16.25,260.8301 L92.5,260.8301 L92.5,270.8301 L80,283.3301 L16.25,283.3301 L16.25,260.8301 " fill="#EEEEEE" style="stroke: #000000; stroke-width: 1.25;"/><rect fill="none" height="406.4844" style="stroke: #000000; stroke-width: 2.5;" width="813.125" x="16.25" y="260.8301"/><text fill="#000000" font-family="sans-serif" font-size="16.25" font-weight="bold" lengthAdjust="spacingAndGlyphs" textLength="20" x="35" y="278.949">alt</text><text fill="#000000" font-family="sans-serif" font-size="13.75" font-weight="bold" lengthAdjust="spacingAndGlyphs" textLength="71.25" x="111.25" y="277.6038">[Suksess]</text><polygon fill="#A80036" points="741.25,306.709,753.75,311.709,741.25,316.709,746.25,311.709" style="stroke: #A80036; stroke-width: 1.25;"/><line style="stroke: #A80036; stroke-width: 1.25;" x1="565" x2="748.75" y1="311.709" y2="311.709"/><text fill="#000000" font-family="sans-serif" font-size="16.25" lengthAdjust="spacingAndGlyphs" textLength="76.25" x="573.75" y="305.6384">Lagre data</text><path d="M28.75,330.459 L105,330.459 L105,340.459 L92.5,352.959 L28.75,352.959 L28.75,330.459 " fill="#EEEEEE" style="stroke: #000000; stroke-width: 1.25;"/><rect fill="none" height="232.4316" style="stroke: #000000; stroke-width: 2.5;" width="788.125" x="28.75" y="330.459"/><text fill="#000000" font-family="sans-serif" font-size="16.25" font-weight="bold" lengthAdjust="spacingAndGlyphs" textLength="20" x="47.5" y="348.5779">alt</text><text fill="#000000" font-family="sans-serif" font-size="13.75" font-weight="bold" lengthAdjust="spacingAndGlyphs" textLength="71.25" x="123.75" y="347.2327">[Suksess]</text><polygon fill="#A80036" points="578.75,376.3379,566.25,381.3379,578.75,386.3379,573.75,381.3379" style="stroke: #A80036; stroke-width: 1.25;"/><line style="stroke: #A80036; stroke-width: 1.25;" x1="571.25" x2="755" y1="381.3379" y2="381.3379"/><text fill="#000000" font-family="sans-serif" font-size="16.25" lengthAdjust="spacingAndGlyphs" textLength="133.75" x="586.25" y="375.2673">Send konfirmasjon</text><polygon fill="#A80036" points="100,414.2773,87.5,419.2773,100,424.2773,95,419.2773" style="stroke: #A80036; stroke-width: 1.25;"/><line style="stroke: #A80036; stroke-width: 1.25; stroke-dasharray: 2.0,2.0;" x1="92.5" x2="551.25" y1="419.2773" y2="419.2773"/><text fill="#000000" font-family="sans-serif" font-size="16.25" lengthAdjust="spacingAndGlyphs" textLength="177.5" x="107.5" y="413.2068">Send konfirmasjons mail</text><polygon fill="#A80036" points="332.5,452.2168,320,457.2168,332.5,462.2168,327.5,457.2168" style="stroke: #A80036; stroke-width: 1.25;"/><line style="stroke: #A80036; stroke-width: 1.25;" x1="325" x2="551.25" y1="457.2168" y2="457.2168"/><text fill="#000000" font-family="sans-serif" font-size="16.25" lengthAdjust="spacingAndGlyphs" textLength="203.75" x="340" y="451.1462">Send konfirmasjons melding</text><polygon fill="#A80036" points="100,490.1563,87.5,495.1563,100,500.1563,95,495.1563" style="stroke: #A80036; stroke-width: 1.25;"/><line style="stroke: #A80036; stroke-width: 1.25;" x1="92.5" x2="305" y1="495.1563" y2="495.1563"/><text fill="#000000" font-family="sans-serif" font-size="16.25" lengthAdjust="spacingAndGlyphs" textLength="190" x="107.5" y="489.0857">Vis konfirmasjons melding</text><line style="stroke: #000000; stroke-width: 1.25; stroke-dasharray: 2.0,2.0;" x1="28.75" x2="816.875" y1="506.4063" y2="506.4063"/><text fill="#000000" font-family="sans-serif" font-size="13.75" font-weight="bold" lengthAdjust="spacingAndGlyphs" textLength="53.75" x="35" y="520.6799">[ERROR]</text><polygon fill="#A80036" points="578.75,547.8906,566.25,552.8906,578.75,557.8906,573.75,552.8906" style="stroke: #A80036; stroke-width: 1.25;"/><line style="stroke: #A80036; stroke-width: 1.25;" x1="571.25" x2="761.25" y1="552.8906" y2="552.8906"/><text fill="#000000" font-family="sans-serif" font-size="16.25" lengthAdjust="spacingAndGlyphs" textLength="161.25" x="586.25" y="546.8201">Send ERROR melding</text><line style="stroke: #000000; stroke-width: 1.25; stroke-dasharray: 2.0,2.0;" x1="16.25" x2="829.375" y1="572.8906" y2="572.8906"/><text fill="#000000" font-family="sans-serif" font-size="13.75" font-weight="bold" lengthAdjust="spacingAndGlyphs" textLength="53.75" x="22.5" y="587.1643">[ERROR]</text><polygon fill="#A80036" points="332.5,614.375,320,619.375,332.5,624.375,327.5,619.375" style="stroke: #A80036; stroke-width: 1.25;"/><line style="stroke: #A80036; stroke-width: 1.25;" x1="325" x2="557.5" y1="619.375" y2="619.375"/><text fill="#000000" font-family="sans-serif" font-size="16.25" lengthAdjust="spacingAndGlyphs" textLength="161.25" x="340" y="613.3044">Send ERROR melding</text><polygon fill="#A80036" points="100,652.3145,87.5,657.3145,100,662.3145,95,657.3145" style="stroke: #A80036; stroke-width: 1.25;"/><line style="stroke: #A80036; stroke-width: 1.25;" x1="92.5" x2="311.25" y1="657.3145" y2="657.3145"/><text fill="#000000" font-family="sans-serif" font-size="16.25" lengthAdjust="spacingAndGlyphs" textLength="147.5" x="107.5" y="651.2439">Vis ERROR melding</text><!--MD5=[c44252c20cf5d41fe35feb591054e64c]
@startuml
actor Arrangør
participant Grensesnitt
participant System
database Database

Arrangør -> Grensesnitt: Fyll ut informasjon og send
activate Arrangør
activate Grensesnitt
Grensesnitt -> System: Send inn informasjon
activate System
System -> System: Valider informasjon

alt Suksess
System -> Database: Lagre data
activate Database
    alt Suksess
    Database -> System: Send konfirmasjon
    System - -> Arrangør: Send konfirmasjons mail
    System -> Grensesnitt: Send konfirmasjons melding
    Grensesnitt -> Arrangør: Vis konfirmasjons melding
    else ERROR
    Database -> System: Send ERROR melding
    deactivate Database
    end
else ERROR
System -> Grensesnitt: Send ERROR melding
deactivate System
Grensesnitt -> Arrangør: Vis ERROR melding
deactivate Grensesnitt
end
deactivate Arrangør
@enduml

PlantUML version 1.2019.11(Sun Sep 22 12:02:15 CEST 2019)
(GPL source distribution)
Java Runtime: OpenJDK Runtime Environment
JVM: OpenJDK 64-Bit Server VM
Java Version: 11.0.4+10-b304.77
Operating System: Windows 10
Default Encoding: Cp1252
Language: en
Country: US
--></g></svg>